<svg width="128" height="128" viewBox="0 0 128 128" fill="none" xmlns="http://www.w3.org/2000/svg">
<g clip-path="url(#clip0_24_68)">
<path fill-rule="evenodd" clip-rule="evenodd" d="M64 128C99.3462 128 128 99.3462 128 64C128 28.6538 99.3462 0 64 0C28.6538 0 0 28.6538 0 64C0 99.3462 28.6538 128 64 128ZM64 124C97.1371 124 124 97.1371 124 64C124 30.8629 97.1371 4 64 4C30.8629 4 4 30.8629 4 64C4 97.1371 30.8629 124 64 124Z" fill="white"/>
<circle cx="64" cy="64" r="48" stroke="white" stroke-width="4"/>
<path d="M78.4775 59.409L79.8543 58.8583C81.2717 58.2913 82.7844 58 84.311 58H94.9037C103.746 58 109.552 67.2387 105.716 75.2058L101 85L96.8971 92.1261C93.9213 97.2945 87.3084 99.0549 82.1569 96.0498C80.4204 95.0369 79.0026 93.5576 78.0643 91.7797L71.8025 79.9152C70.6304 77.6945 70.1846 75.162 70.5277 72.6745L71.0467 68.9111C71.6361 64.6385 74.473 61.0108 78.4775 59.409Z" stroke="white" stroke-width="2"/>
<path d="M75.2812 35.9873L65.7911 46.9603C63.3155 49.8227 64.0852 54.2354 67.3836 56.0908C68.4365 56.683 69.644 56.9428 70.8473 56.8358L89.8856 55.1435C90.957 55.0483 92.0364 55.0975 93.0947 55.2899L101.971 56.9039C102.323 56.9678 102.68 57 103.037 57C107.015 57 109.876 53.1768 108.753 49.3608L106.747 42.5387C106.256 40.8689 105.385 39.3354 104.202 38.0583L99.3851 32.8559C95.8716 29.0613 90.3222 27.9444 85.6143 30.0844L79.392 32.9127C77.816 33.6291 76.4137 34.6779 75.2812 35.9873Z" stroke="white" stroke-width="2"/>
<path d="M46.8682 79.8398L44.2823 93.508C44.0958 94.4938 43.7249 95.4356 43.1891 96.2838C40.5037 100.536 34.6008 101.271 30.9547 97.807L28 95L21.4997 86.8747C20.5115 85.6394 19.8014 84.2056 19.4177 82.6709L17.8364 76.3455C17.0622 73.2487 18.6102 70.0408 21.5161 68.7199C21.8382 68.5736 22.1715 68.4532 22.5128 68.3601L30.1057 66.2894C32.0006 65.7726 33.9994 65.7726 35.8943 66.2894L38.925 67.1159C42.1343 67.9912 44.7928 70.3122 46.1262 73.3598C47.0137 75.3885 47.2798 77.664 46.8682 79.8398Z" stroke="white" stroke-width="2"/>
<path d="M29 63.5L23.1802 64.664C19.7243 65.3551 16.5 62.7119 16.5 59.1875C16.5 58.7309 16.556 58.276 16.6668 57.833L18.7492 49.503C18.916 48.8358 19.1451 48.1857 19.4333 47.5613L23.9118 37.8577C24.6274 36.3072 25.6942 34.9446 27.0277 33.8778L30.4943 31.1046C33.3158 28.8474 37.0659 28.1198 40.5268 29.158L42.1608 29.6482C46.8137 31.0441 50 35.3266 50 40.1843V49.2131C50 52.5547 48.481 55.7152 45.8716 57.8027L44.4934 58.9053C43.1819 59.9545 41.6475 60.6894 40.008 61.0538L29 63.5Z" stroke="white" stroke-width="2"/>
</g>
<defs>
<clipPath id="clip0_24_68">
<rect width="128" height="128" fill="white"/>
</clipPath>
</defs>
</svg>
