<svg width="128" height="128" viewBox="0 0 128 128" fill="none" xmlns="http://www.w3.org/2000/svg">
<g clip-path="url(#clip0_24_114)">
<path fill-rule="evenodd" clip-rule="evenodd" d="M64 128C99.3462 128 128 99.3462 128 64C128 28.6538 99.3462 0 64 0C28.6538 0 0 28.6538 0 64C0 99.3462 28.6538 128 64 128ZM64 124C97.1371 124 124 97.1371 124 64C124 30.8629 97.1371 4 64 4C30.8629 4 4 30.8629 4 64C4 97.1371 30.8629 124 64 124Z" fill="white"/>
<rect x="35" y="20" width="59" height="10" rx="3" fill="white"/>
<rect x="35" y="99" width="59" height="9" rx="3" fill="white"/>
<path d="M87 30V45.5844C87 46.6504 86.5745 47.6724 85.8178 48.4234L71.9642 62.1739C70.3482 63.7779 70.3951 66.4053 72.0673 67.9506L85.7148 80.5623C86.5341 81.3194 87 82.3844 87 83.5V99" stroke="white" stroke-width="4"/>
<path d="M42 30V45.5844C42 46.6504 42.4255 47.6724 43.1822 48.4234L57.0358 62.1739C58.6518 63.7779 58.6049 66.4053 56.9327 67.9506L43.2852 80.5623C42.4659 81.3194 42 82.3844 42 83.5L42 99" stroke="white" stroke-width="4"/>
<path d="M63.8059 81.6693L45.9474 98.8889L42.6412 102.304C42.027 102.939 42.4766 104 43.3597 104H85.6403C86.5234 104 86.973 102.939 86.3588 102.304L83.0526 98.8889L65.1941 81.6693C64.8067 81.2958 64.1933 81.2958 63.8059 81.6693Z" fill="white" stroke="white" stroke-width="2"/>
<path d="M63.783 63.2625L48.6499 47.6971C48.0336 47.0632 48.4828 46 49.3669 46H79.6331C80.5172 46 80.9664 47.0632 80.3501 47.6971L65.217 63.2625C64.8243 63.6664 64.1757 63.6664 63.783 63.2625Z" fill="white"/>
</g>
<defs>
<clipPath id="clip0_24_114">
<rect width="128" height="128" fill="white"/>
</clipPath>
</defs>
</svg>
