<svg width="128" height="128" viewBox="0 0 128 128" fill="none" xmlns="http://www.w3.org/2000/svg">
<g clip-path="url(#clip0_24_2)">
<path fill-rule="evenodd" clip-rule="evenodd" d="M64 128C99.3462 128 128 99.3462 128 64C128 28.6538 99.3462 0 64 0C28.6538 0 0 28.6538 0 64C0 99.3462 28.6538 128 64 128ZM64 124C97.1371 124 124 97.1371 124 64C124 30.8629 97.1371 4 64 4C30.8629 4 4 30.8629 4 64C4 97.1371 30.8629 124 64 124Z" fill="white"/>
<path d="M24 53L61.35 29.6562C62.9714 28.6429 65.0286 28.6429 66.65 29.6562L104 53" stroke="white" stroke-width="4" stroke-linecap="round"/>
<path d="M34 56V90C34 91.1046 34.8954 92 36 92H92C93.1046 92 94 91.1046 94 90V56" stroke="white" stroke-width="4" stroke-linecap="round"/>
</g>
<defs>
<clipPath id="clip0_24_2">
<rect width="128" height="128" fill="white"/>
</clipPath>
</defs>
</svg>
