<svg width="128" height="128" viewBox="0 0 128 128" fill="none" xmlns="http://www.w3.org/2000/svg">
<g clip-path="url(#clip0_24_58)">
<path fill-rule="evenodd" clip-rule="evenodd" d="M64 128C99.3462 128 128 99.3462 128 64C128 28.6538 99.3462 0 64 0C28.6538 0 0 28.6538 0 64C0 99.3462 28.6538 128 64 128ZM64 124C97.1371 124 124 97.1371 124 64C124 30.8629 97.1371 4 64 4C30.8629 4 4 30.8629 4 64C4 97.1371 30.8629 124 64 124Z" fill="white"/>
<path d="M24.8337 91.3927C24.4072 92.4116 24.8875 93.5834 25.9064 94.0099C26.9253 94.4364 28.097 93.9562 28.5235 92.9373L24.8337 91.3927ZM99.7698 31.972C99.4009 30.9309 98.2578 30.3859 97.2167 30.7547L80.25 36.7658C79.2089 37.1347 78.6639 38.2777 79.0328 39.3189C79.4016 40.36 80.5447 40.905 81.5858 40.5362L96.6673 35.193L102.01 50.2745C102.379 51.3156 103.522 51.8606 104.564 51.4918C105.605 51.1229 106.15 49.9798 105.781 48.9387L99.7698 31.972ZM44.6786 49.165L46.0332 47.6936C45.5535 47.252 44.8886 47.0719 44.2516 47.2111C43.6146 47.3503 43.0854 47.7913 42.8337 48.3927L44.6786 49.165ZM76.1786 78.165L74.824 79.6364C75.2911 80.0664 75.9347 80.2491 76.5581 80.1286C77.1815 80.0082 77.7106 79.5989 77.9839 79.0257L76.1786 78.165ZM28.5235 92.9373L46.5234 49.9373L42.8337 48.3927L24.8337 91.3927L28.5235 92.9373ZM43.3239 50.6364L74.824 79.6364L77.5332 76.6936L46.0332 47.6936L43.3239 50.6364ZM77.9839 79.0257L99.6899 33.5007L96.0793 31.7792L74.3733 77.3042L77.9839 79.0257Z" fill="white"/>
</g>
<defs>
<clipPath id="clip0_24_58">
<rect width="128" height="128" fill="white"/>
</clipPath>
</defs>
</svg>
